<svg width="580" height="400" xmlns="http://www.w3.org/2000/svg">
 <!-- Created with Method Draw - http://github.com/duopixel/Method-Draw/ -->

 <g>
  <title>background</title>
  <rect fill="#fff" id="canvas_background" height="18" width="18" y="-1" x="-1"/>
 </g>
 <g>
  <title>Layer 1</title>
  <g id="svg_15">
   <circle stroke-width="2" stroke="#bf0000" fill="#ffffff" transform="matrix(7.111111534966369,0,0,7.111111534966369,0,0) " id="svg_14" r="24" cy="28.124999" cx="40.781248"/>
  </g>
  <g stroke="null" id="svg_40">
   <path fill="#bf0000" stroke="null" id="svg_39" d="m299.694717,105.658928c12.345782,0.908331 23.143639,-7.890121 24.121842,-19.607059c0.988953,-11.77606 -8.223355,-22.07944 -20.569138,-22.987772c-12.361907,-0.897582 -23.159763,7.847123 -24.116467,19.623183c-0.962079,11.770685 8.255604,22.052566 20.563763,22.971647zm92.477811,172.324978l-7.460142,-64.496904l-12.103919,0c0.11287,-5.374742 0.096745,-5.971338 -0.274112,-9.233807c-0.360108,-3.337715 -1.418932,-5.777848 -3.144224,-6.546436c1.413557,-1.504928 2.354137,-3.418336 2.536878,-5.573607c0.274112,-3.396837 -1.316812,-6.573309 -3.977309,-8.465219l-30.808021,-20.252028l-22.681411,-42.7077c-3.756945,-5.589732 -10.120639,-10.09914 -17.801145,-10.744109c-5.901467,-0.40848 -11.329956,1.542551 -15.72112,4.444912l-45.008089,34.839078c-1.483429,1.193193 -2.596,2.762617 -3.101226,4.649152l-10.486122,42.197099l-0.795462,1.252315l0,0.016124l-0.085996,0c-1.757541,0 -3.359214,1.67692 -3.971934,3.896688c-0.591222,2.176771 -1.316812,5.052257 -1.316812,7.379521l0,4.848017l-11.684689,0l-7.460142,64.496904l30.146928,0l-13.216491,21.14961c-0.859959,1.639296 -1.87041,3.95581 -2.047777,6.191703c-0.650344,8.008366 5.584357,14.968656 13.942081,15.608251c5.971338,0.397731 11.109592,-2.483131 14.232317,-7.08391l22.305179,-35.865653l2.918485,0l-0.456853,-3.961185l6.186328,-9.954022c0.671843,-1.332936 2.805615,-4.595404 3.042104,-6.14333l7.556887,-32.839674l32.253827,33.715757l10.126014,50.689192c1.617797,5.992837 6.788299,10.9376 13.667969,11.442826c8.368473,0.63422 15.694247,-5.272622 16.360715,-13.264863l-0.091371,-2.945359l-5.288746,-26.739341l43.707402,0zm-171.056539,-69.925393c0.300986,-2.542253 1.252315,-3.988059 2.929234,-3.988059l0.628845,-0.010749c1.693044,2.047777 4.208423,3.450584 7.110784,3.687073c3.326965,0.257988 6.315322,-1.177068 8.346974,-3.402212c0.451478,0.381607 0.811586,0.956704 1.058824,1.752166c0.446104,1.542551 0.704091,3.310841 0.704091,4.767396c0,0.870708 -0.042998,2.622874 -0.10212,2.622874l-20.8325,0c-0.069872,0 -0.048373,-3.455959 0.155868,-5.428489zm30.802646,5.428489l-6.369069,0c0.134369,-5.374742 0.096745,-5.971338 -0.252613,-9.233807c-0.300986,-2.794866 -1.091073,-4.955512 -2.343388,-6.062709l7.949243,-34.624088l15.678122,-12.130793l-14.662296,62.051396zm116.943636,0l-20.848624,0c-0.085996,0 -0.059122,-3.455959 0.155868,-5.428489c0.279487,-2.542253 1.24694,-3.988059 2.929234,-3.988059c2.413259,0 4.600779,-0.075246 6.541061,-0.118244c1.951031,-0.069872 4.611529,-0.166617 7.959993,-0.166617c1.284563,0 2.155272,0.763213 2.638998,2.316514c0.462228,1.542551 0.709466,3.310841 0.709466,4.767396l-0.085996,2.617499zm-67.431513,-12.270536l10.104515,-42.653952l8.497467,16.032855c0.671843,1.101822 1.467305,2.010154 2.515379,2.864737l30.351168,19.90267l-4.584655,0c-1.757541,0 -2.40251,1.67692 -3.009856,3.896688c-0.575097,2.176771 -0.338609,5.052257 -0.338609,7.379521l0,4.848017l-13.608847,0l-2.198269,18.972839l-27.728294,-31.243375z"/>
  </g>
 </g>
</svg>