<svg width="580" height="400" xmlns="http://www.w3.org/2000/svg">
 <!-- Created with Method Draw - http://github.com/duopixel/Method-Draw/ -->

 <g>
  <title>background</title>
  <rect x="-1" y="-1" width="582" height="402" id="canvas_background" fill="#fff"/>
 </g>
 <g>
  <title>Layer 1</title>
  <g id="svg_15">
   <circle cx="40.781248" cy="28.124999" r="24" id="svg_14" transform="matrix(7.111111534966369,0,0,7.111111534966369,0,0) " fill="#bf0000" stroke="#ffffff"/>
  </g>
  <g id="svg_35" stroke="null">
   <path d="m247.52761,147.4546c13.35607,4.45203 22.26012,15.79578 22.26012,30.75459l0,114.93791c0,3.53491 3.57498,5.67633 -0.07568,5.67633l-65.89441,0c-3.64176,0 -5.2623,-2.14142 -5.2623,-5.67188l0,-114.94236c0,-14.99442 8.90405,-27.39776 22.26012,-30.75459l0,-53.42429l26.71215,0l0,53.42429zm-26.71215,-71.23239l26.71215,0l0,8.90405l-26.71215,0l0,-8.90405zm121.33993,21.30294c-2.03458,-0.28938 -3.59724,-1.94108 -3.59724,-3.93114c0,-1.45581 0.8726,-2.72464 2.14142,-3.44586c-1.26882,-0.66781 -2.14142,-3.01848 -2.14142,-4.48765c0,-2.2082 1.86095,-4.98626 4.1671,-4.98626l20.85328,0c2.3195,0 4.16709,2.77806 4.16709,4.98181c0,1.53595 -0.86814,3.32566 -2.19039,3.97121c1.26882,0.69006 2.19039,2.1993 2.19039,3.70853c0,1.99451 -1.50478,3.77087 -3.53045,4.03799l26.55632,64.99956c1.55821,4.22497 3.67292,8.97528 3.67292,13.641l0,113.90504c0,4.34518 0.11576,8.90405 -4.45202,8.90405l-67.1766,0c-4.63901,0 -4.05579,-4.55887 -4.05579,-8.90405l0,-115.75263c0,-4.66127 0.86815,-7.50611 2.43526,-11.73554l20.96013,-64.90606z" id="svg_34" stroke="null" fill="#ffffff"/>
  </g>
 </g>
</svg>