<svg width="580" height="400" xmlns="http://www.w3.org/2000/svg">
 <!-- Created with Method Draw - http://github.com/duopixel/Method-Draw/ -->

 <g>
  <title>background</title>
  <rect fill="#fff" id="canvas_background" height="18" width="18" y="-1" x="-1"/>
 </g>
 <g>
  <title>Layer 1</title>
  <g id="svg_15">
   <circle stroke-width="2" stroke="#bf0000" fill="#ffffff" transform="matrix(7.111111534966369,0,0,7.111111534966369,0,0) " id="svg_14" r="24" cy="28.124999" cx="40.781248"/>
  </g>
  <g stroke="null" id="svg_30">
   <path fill="#bf0000" stroke="null" id="svg_29" d="m275.466669,77.470165l0,60.996984l-11.022223,0l0,-60.622229c0,-3.042134 -2.468978,-5.511112 -5.511112,-5.511112s-5.511112,2.468978 -5.511112,5.511112l0,60.622229l-11.022223,0l0,-60.820629c0,-7.092801 -11.022223,-6.850312 -11.022223,-0.181867l0,61.002495l-11.022223,0l0,-60.567118c0,-7.511645 -11.022223,-7.23609 -11.022223,-0.2976l0,79.756808c0,11.50169 11.022223,19.08498 22.044447,19.08498l0,143.889615c0,22.044447 33.06667,22.044447 33.06667,0l0,-143.884104c11.022223,0 22.044447,-9.159468 22.044447,-17.784357l0,-81.018853c0,-7.026667 -11.022223,-6.756623 -11.022223,-0.176356zm49.600005,16.908091l0,137.777792l11.022223,0l0,88.177787c0,22.044447 38.577782,22.044447 38.577782,0l0,-225.955579c0,-27.555558 -49.600005,-27.555558 -49.600005,0z"/>
  </g>
 </g>
</svg>