<svg width="36" height="35" xmlns="http://www.w3.org/2000/svg">
 <!-- Created with Method Draw - http://github.com/duopixel/Method-Draw/ -->

 <g>
  <title>background</title>
  <rect x="-1" y="-1" width="38" height="37" id="canvas_background" fill="none"/>
 </g>
 <g>
  <title>Layer 1</title>
  <g stroke="null" id="svg_15">
   <circle stroke="#ffffff" cx="-145.810904" cy="-14.731857" r="24" id="svg_14" transform="matrix(0.6666672866640776,0,0,0.6579867596116127,114.6246667696627,27.7351843900142) " fill="#bf0000"/>
  </g>
  <g stroke="null" id="svg_37">
   <path fill="#ffffff" stroke="null" id="svg_36" d="m29.32101,9.916623l-8.24328,0s-0.549552,4.396416 0.549552,8.792832c0.44184,0.7364 1.53325,1.133176 2.74776,1.233744l0,5.36088l-0.183001,0l-2.015207,1.648656l6.045072,0l-1.969594,-1.648656l-0.228614,0l0,-5.400997c1.16505,-0.151127 2.23283,-0.557246 2.74776,-1.193627c1.099104,-3.846864 0.549552,-8.792832 0.549552,-8.792832zm-0.549552,3.297312l-7.144176,0l0,-2.74776l7.144176,0l0,2.74776zm-13.464025,12.090145l-3.022536,0l0,-4.671192l6.045072,-9.067608l-14.288353,0l6.045072,9.067608l0,4.671192l-3.022536,0c-0.455579,0 -0.824328,0.369299 -0.824328,0.824328s0.368749,0.824328 0.824328,0.824328l8.24328,0c0.455579,0 0.824328,-0.369299 0.824328,-0.824328s-0.368749,-0.824328 -0.824328,-0.824328z"/>
  </g>
 </g>
</svg>