<svg width="36" height="36" xmlns="http://www.w3.org/2000/svg">
 <!-- Created with Method Draw - http://github.com/duopixel/Method-Draw/ -->

 <g>
  <title>background</title>
  <rect fill="none" id="canvas_background" height="38" width="38" y="-1" x="-1"/>
  <g display="none" overflow="visible" y="0" x="0" height="100%" width="100%" id="canvasGrid">
   <rect fill="url(#gridpattern)" stroke-width="0" y="0" x="0" height="100%" width="100%"/>
  </g>
 </g>
 <g>
  <title>Layer 1</title>
  <ellipse stroke="#ffffff" ry="16.851751" rx="16.851751" id="svg_1" cy="18.347216" cx="17.999995" fill="#ff7f00"/>
  <g stroke="null" id="svg_59">
   <path stroke="null" fill="#ffffff" id="svg_58" d="m13.141493,6.440919c-0.619662,0 -1.119302,0.512369 -1.119302,1.148398l0,19.524588c0,0.573744 0.559651,1.148853 1.119302,1.148853c0.559196,0 1.118847,-0.575563 1.118847,-1.148853l0,-11.772218c0.382345,-0.16685 0.754233,-0.287327 1.119302,-0.287327c2.238149,0 5.53968,2.871905 7.833749,2.871905c0.977912,0 2.378175,-0.395984 3.356996,-1.148853l0,-8.039697c-1.110209,0.854252 -2.234967,1.723052 -3.356996,1.723052c-2.238149,0 -5.587871,-2.87145 -7.833749,-2.87145c-0.377344,0 -0.745595,0.069104 -1.119302,0.143663l0,-0.143663c0,-0.636029 -0.49964,-1.148398 -1.118847,-1.148398z"/>
  </g>
 </g>
</svg>