<svg width="47" height="47" xmlns="http://www.w3.org/2000/svg">
 <!-- Created with Method Draw - http://github.com/duopixel/Method-Draw/ -->

 <g>
  <title>background</title>
  <rect fill="none" id="canvas_background" height="49" width="49" y="-1" x="-1"/>
  <g display="none" overflow="visible" y="0" x="0" height="100%" width="100%" id="canvasGrid">
   <rect fill="url(#gridpattern)" stroke-width="0" y="0" x="0" height="100%" width="100%"/>
  </g>
 </g>
 <g>
  <title>Layer 1</title>
  <path stroke="null" fill="#bf0000" id="svg_4" d="m23.313686,2.331796c-6.941361,0 -12.568857,5.577221 -12.568857,12.456575c0,6.880192 12.568857,29.440453 12.568857,29.440453s12.568857,-22.560261 12.568857,-29.440453c0,-6.879354 -5.627496,-12.456575 -12.568857,-12.456575zm-0.041058,16.181985c-2.142571,0 -3.878749,-1.721933 -3.878749,-3.844394c0,-2.124137 1.736178,-3.845232 3.878749,-3.845232c2.144247,0 3.880425,1.721096 3.880425,3.845232c0,2.122461 -1.736178,3.844394 -3.880425,3.844394z"/>
  <ellipse ry="10.257618" rx="10.257618" id="svg_11" cy="14.681846" cx="23.40355" stroke-width="null" fill="#ffffff"/>
  <g stroke="null" id="svg_31">
   <path stroke="null" fill="#bf0000" id="svg_30" d="m20.570497,11.277265c0.807122,0.287305 1.345204,1.019358 1.345204,1.984703l0,7.417352c0,0.22812 0.21604,0.366314 -0.004574,0.366314l-3.982072,0c-0.220075,0 -0.318006,-0.138194 -0.318006,-0.366027l0,-7.417639c0,-0.967643 0.538081,-1.768075 1.345204,-1.984703l0,-3.447659l1.614244,0l0,3.447659zm-1.614244,-4.596879l1.614244,0l0,0.57461l-1.614244,0l0,-0.57461zm7.332706,1.374754c-0.122952,-0.018675 -0.217385,-0.125265 -0.217385,-0.25369c0,-0.093949 0.052732,-0.175831 0.129409,-0.222374c-0.076677,-0.043096 -0.129409,-0.194793 -0.129409,-0.289603c0,-0.142503 0.112459,-0.321782 0.251822,-0.321782l1.260187,0c0.14017,0 0.251822,0.179278 0.251822,0.321494c0,0.09912 -0.052463,0.214617 -0.132368,0.256276c0.076677,0.044532 0.132368,0.141929 0.132368,0.239325c0,0.128713 -0.090936,0.243347 -0.213349,0.260586l1.604828,4.194652c0.094164,0.272652 0.221959,0.579207 0.221959,0.880302l0,7.350697c0,0.28041 0.006995,0.57461 -0.269041,0.57461l-4.059556,0c-0.28034,0 -0.245096,-0.2942 -0.245096,-0.57461l0,-7.469929c0,-0.300808 0.052463,-0.484396 0.147165,-0.757336l1.266644,-4.188619z"/>
  </g>
 </g>
</svg>