<svg width="47" height="47" xmlns="http://www.w3.org/2000/svg">
 <!-- Created with Method Draw - http://github.com/duopixel/Method-Draw/ -->

 <g>
  <title>background</title>
  <rect fill="none" id="canvas_background" height="49" width="49" y="-1" x="-1"/>
  <g display="none" overflow="visible" y="0" x="0" height="100%" width="100%" id="canvasGrid">
   <rect fill="url(#gridpattern)" stroke-width="0" y="0" x="0" height="100%" width="100%"/>
  </g>
 </g>
 <g>
  <title>Layer 1</title>
  <path stroke="null" fill="#bf0000" id="svg_4" d="m23.313686,2.331796c-6.941361,0 -12.568857,5.577221 -12.568857,12.456575c0,6.880192 12.568857,29.440453 12.568857,29.440453s12.568857,-22.560261 12.568857,-29.440453c0,-6.879354 -5.627496,-12.456575 -12.568857,-12.456575zm-0.041058,16.181985c-2.142571,0 -3.878749,-1.721933 -3.878749,-3.844394c0,-2.124137 1.736178,-3.845232 3.878749,-3.845232c2.144247,0 3.880425,1.721096 3.880425,3.845232c0,2.122461 -1.736178,3.844394 -3.880425,3.844394z"/>
  <ellipse ry="10.257618" rx="10.257618" id="svg_11" cy="14.681846" cx="23.40355" stroke-width="null" fill="#ffffff"/>
  <style transform="matrix(0.44089256278135736,0,0,0.44089256278135736,0,0) " type="text/css">
   <![CDATA[
	.st0{fill:#D1D1D1;}
	.st1{fill:#454545;}
]]>
  </style>
  <g stroke="null" id="svg_50">
   <path fill="#bf0000" stroke="null" id="svg_49" d="m21.955119,6.839724l0,3.626917l-0.655388,0l0,-3.604634c0,-0.180887 -0.146807,-0.327694 -0.327694,-0.327694s-0.327694,0.146807 -0.327694,0.327694l0,3.604634l-0.655388,0l0,-3.616431c0,-0.421742 -0.655388,-0.407324 -0.655388,-0.010814l0,3.627245l-0.655388,0l0,-3.601357c0,-0.446647 -0.655388,-0.430262 -0.655388,-0.017695l0,4.742387c0,0.683897 0.655388,1.134804 1.310776,1.134804l0,8.555762c0,1.310776 1.966164,1.310776 1.966164,0l0,-8.555434c0.655388,0 1.310776,-0.544627 1.310776,-1.057468l0,-4.817429c0,-0.41781 -0.655388,-0.401753 -0.655388,-0.010486zm2.949246,1.005365l0,8.192349l0.655388,0l0,5.243103c0,1.310776 2.293858,1.310776 2.293858,0l0,-13.435453c0,-1.63847 -2.949246,-1.63847 -2.949246,0z"/>
  </g>
 </g>
</svg>