<svg width="47" height="47" xmlns="http://www.w3.org/2000/svg">
 <!-- Created with Method Draw - http://github.com/duopixel/Method-Draw/ -->

 <g>
  <title>background</title>
  <rect fill="none" id="canvas_background" height="49" width="49" y="-1" x="-1"/>
  <g display="none" overflow="visible" y="0" x="0" height="100%" width="100%" id="canvasGrid">
   <rect fill="url(#gridpattern)" stroke-width="0" y="0" x="0" height="100%" width="100%"/>
  </g>
 </g>
 <g>
  <title>Layer 1</title>
  <path stroke="null" fill="#007fff" id="svg_4" d="m23.313686,2.331796c-6.941361,0 -12.568857,5.577221 -12.568857,12.456575c0,6.880192 12.568857,29.440453 12.568857,29.440453s12.568857,-22.560261 12.568857,-29.440453c0,-6.879354 -5.627496,-12.456575 -12.568857,-12.456575zm-0.041058,16.181985c-2.142571,0 -3.878749,-1.721933 -3.878749,-3.844394c0,-2.124137 1.736178,-3.845232 3.878749,-3.845232c2.144247,0 3.880425,1.721096 3.880425,3.845232c0,2.122461 -1.736178,3.844394 -3.880425,3.844394z"/>
  <ellipse ry="10.257618" rx="10.257618" id="svg_11" cy="14.681846" cx="23.40355" stroke-width="null" fill="#ffffff"/>
  <style transform="matrix(0.44089256278135736,0,0,0.44089256278135736,0,0) " type="text/css">
   <![CDATA[
	.st0{fill:#D1D1D1;}
	.st1{fill:#454545;}
]]>
  </style>
  <g stroke="null" id="svg_50">
   <path stroke="null" fill="#007fff" id="svg_49" d="m21.805307,6.828085l0,3.48874l-0.630419,0l0,-3.467305c0,-0.173996 -0.141214,-0.31521 -0.31521,-0.31521s-0.31521,0.141214 -0.31521,0.31521l0,3.467305l-0.630419,0l0,-3.478653c0,-0.405675 -0.630419,-0.391806 -0.630419,-0.010402l0,3.489055l-0.630419,0l0,-3.464153c0,-0.429631 -0.630419,-0.41387 -0.630419,-0.017021l0,4.561713c0,0.657842 0.630419,1.091571 1.260838,1.091571l0,8.229807c0,1.260838 1.891258,1.260838 1.891258,0l0,-8.229492c0.630419,0 1.260838,-0.523878 1.260838,-1.017181l0,-4.633896c0,-0.401892 -0.630419,-0.386447 -0.630419,-0.010087zm2.836886,0.967063l0,7.88024l0.630419,0l0,5.043353c0,1.260838 2.206467,1.260838 2.206467,0l0,-12.923593c0,-1.576048 -2.836886,-1.576048 -2.836886,0z"/>
  </g>
 </g>
</svg>