<svg width="36" height="36" xmlns="http://www.w3.org/2000/svg">
 <!-- Created with Method Draw - http://github.com/duopixel/Method-Draw/ -->

 <g>
  <title>background</title>
  <rect fill="none" id="canvas_background" height="38" width="38" y="-1" x="-1"/>
  <g display="none" overflow="visible" y="0" x="0" height="100%" width="100%" id="canvasGrid">
   <rect fill="url(#gridpattern)" stroke-width="0" y="0" x="0" height="100%" width="100%"/>
  </g>
 </g>
 <g>
  <title>Layer 1</title>
  <ellipse stroke="#ffffff" ry="16.851751" rx="16.851751" id="svg_1" cy="18.347216" cx="17.999995" fill="#ff7f00"/>
  <g stroke="null" id="svg_6">
   <path stroke="null" fill="#ffffff" id="svg_5" d="m13.47358,13.311736c1.28498,0.428327 2.141633,1.519703 2.141633,2.95888l0,11.058106c0,0.340091 0.343946,0.546116 -0.007282,0.546116l-6.339661,0c-0.350371,0 -0.506282,-0.206025 -0.506282,-0.545688l0,-11.058535c0,-1.442604 0.856653,-2.635922 2.141633,-2.95888l0,-5.139919l2.569959,0l0,5.139919zm-2.569959,-6.853225l2.569959,0l0,0.856653l-2.569959,0l0,-0.856653zm11.67404,2.049543c-0.195745,-0.027841 -0.346088,-0.18675 -0.346088,-0.378212c0,-0.140063 0.083952,-0.262136 0.206025,-0.331525c-0.122073,-0.064249 -0.206025,-0.290405 -0.206025,-0.431753c0,-0.21245 0.17904,-0.479726 0.400914,-0.479726l2.006282,0c0.223158,0 0.400914,0.267276 0.400914,0.479297c0,0.147773 -0.083524,0.31996 -0.210737,0.382067c0.122073,0.066391 0.210737,0.211593 0.210737,0.356796c0,0.19189 -0.144774,0.362793 -0.339663,0.388492l2.554968,6.253568c0.149914,0.406482 0.353369,0.863506 0.353369,1.312393l0,10.958735c0,0.418047 0.011136,0.856653 -0.428327,0.856653l-6.463019,0c-0.446316,0 -0.390205,-0.438606 -0.390205,-0.856653l0,-11.13649c0,-0.448458 0.083524,-0.722159 0.234295,-1.129069l2.016561,-6.244573z"/>
  </g>
 </g>
</svg>