<svg width="36" height="36" xmlns="http://www.w3.org/2000/svg">
 <!-- Created with Method Draw - http://github.com/duopixel/Method-Draw/ -->

 <g>
  <title>background</title>
  <rect fill="none" id="canvas_background" height="38" width="38" y="-1" x="-1"/>
  <g display="none" overflow="visible" y="0" x="0" height="100%" width="100%" id="canvasGrid">
   <rect fill="url(#gridpattern)" stroke-width="0" y="0" x="0" height="100%" width="100%"/>
  </g>
 </g>
 <g>
  <title>Layer 1</title>
  <ellipse stroke="#ffffff" ry="16.851751" rx="16.851751" id="svg_1" cy="18.347216" cx="17.999995" fill="#bf0000"/>
  <g stroke="null" id="svg_36">
   <path stroke="null" id="svg_34" fill="none" d="m5.018572,5.018571l25.592486,0l0,25.592486l-25.592486,0l0,-25.592486z"/>
   <path stroke="null" fill="#ffffff" id="svg_35" d="m13.656036,19.243728l3.017781,-3.017781l-7.485802,-7.475139c-1.663512,1.663512 -1.663512,4.361386 0,6.035561l4.468021,4.457358zm7.229877,-1.9301c1.631521,0.757111 3.924181,0.223934 5.619683,-1.471568c2.036735,-2.036735 2.431286,-4.958544 0.863746,-6.526084c-1.556876,-1.556876 -4.478685,-1.172989 -6.526084,0.863746c-1.695502,1.695502 -2.228679,3.988162 -1.471568,5.619683l-10.407611,10.407611l1.503559,1.503559l7.347176,-7.325849l7.336513,7.336513l1.503559,-1.503559l-7.336513,-7.336513l1.56754,-1.56754z"/>
  </g>
 </g>
</svg>