<svg width="36" height="35" xmlns="http://www.w3.org/2000/svg">
 <!-- Created with Method Draw - http://github.com/duopixel/Method-Draw/ -->

 <g>
  <title>background</title>
  <rect x="-1" y="-1" width="38" height="37" id="canvas_background" fill="none"/>
 </g>
 <g>
  <title>Layer 1</title>
  <g stroke="null" id="svg_15">
   <circle stroke="#ffffff" cx="-145.810904" cy="-14.731857" r="24" id="svg_14" transform="matrix(0.6666672866640776,0,0,0.6579867596116127,114.6246667696627,27.7351843900142) " fill="#bf0000"/>
  </g>
  <g stroke="null" id="svg_22">
   <path fill="#ffffff" stroke="null" id="svg_21" d="m18.260967,8.827616c1.115344,0.082061 2.090846,-0.71281 2.179219,-1.771343c0.089344,-1.063874 -0.742915,-1.994704 -1.85826,-2.076764c-1.116801,-0.081089 -2.092302,0.708926 -2.178733,1.7728c-0.086916,1.063389 0.745829,1.992276 1.857774,2.075308zm8.354643,15.568206l-0.673965,-5.826788l-1.093494,0c0.010197,-0.485566 0.00874,-0.539463 -0.024764,-0.834202c-0.032533,-0.301536 -0.128189,-0.521983 -0.284056,-0.591419c0.127704,-0.135958 0.212678,-0.30882 0.229187,-0.503532c0.024764,-0.306877 -0.118964,-0.593847 -0.359319,-0.764766l-2.783262,-1.829611l-2.049087,-3.858305c-0.33941,-0.504988 -0.91432,-0.912378 -1.608193,-0.970646c-0.533151,-0.036903 -1.023572,0.139357 -1.42028,0.401563l-4.066127,3.147437c-0.134016,0.107796 -0.234528,0.249581 -0.280171,0.420014l-0.947339,3.812176l-0.071864,0.113137l0,0.001457l-0.007769,0c-0.15878,0 -0.303479,0.151496 -0.358833,0.352035c-0.053412,0.196654 -0.118964,0.456432 -0.118964,0.666682l0,0.43798l-1.05562,0l-0.673965,5.826788l2.723538,0l-1.194006,1.910701c-0.077691,0.148098 -0.168977,0.357376 -0.185001,0.559372c-0.058753,0.723493 0.504503,1.3523 1.259557,1.410083c0.539463,0.035932 1.003664,-0.224331 1.285778,-0.639976l2.015097,-3.24018l0.263662,0l-0.041273,-0.357862l0.558886,-0.899268c0.060696,-0.12042 0.253465,-0.415159 0.27483,-0.555002l0.682705,-2.966806l2.913879,3.045953l0.914806,4.57937c0.146155,0.541406 0.613269,0.988126 1.234793,1.033769c0.756026,0.057297 1.417852,-0.47634 1.478062,-1.198376l-0.008255,-0.26609l-0.477797,-2.415689l3.94862,0zm-15.453612,-6.317209c0.027192,-0.229673 0.113137,-0.36029 0.264633,-0.36029l0.056811,-0.000971c0.152953,0.185001 0.380198,0.311733 0.642403,0.333098c0.300565,0.023307 0.57054,-0.106339 0.754083,-0.307363c0.040788,0.034475 0.07332,0.086431 0.095656,0.158294c0.040302,0.139357 0.063609,0.299108 0.063609,0.430697c0,0.078662 -0.003885,0.236956 -0.009226,0.236956l-1.882052,0c-0.006312,0 -0.00437,-0.312219 0.014081,-0.490421zm2.782777,0.490421l-0.575395,0c0.012139,-0.485566 0.00874,-0.539463 -0.022822,-0.834202c-0.027192,-0.252494 -0.09857,-0.447692 -0.211707,-0.547718l0.718152,-3.128014l1.416395,-1.095922l-1.324623,5.605855zm10.564937,0l-1.883509,0c-0.007769,0 -0.005341,-0.312219 0.014081,-0.490421c0.025249,-0.229673 0.112651,-0.36029 0.264633,-0.36029c0.218019,0 0.415644,-0.006798 0.590933,-0.010682c0.17626,-0.006312 0.416615,-0.015053 0.719123,-0.015053c0.11605,0 0.194712,0.06895 0.238413,0.209279c0.041759,0.139357 0.064095,0.299108 0.064095,0.430697l-0.007769,0.23647zm-6.091907,-1.108546l0.912863,-3.853449l0.767679,1.448442c0.060696,0.099541 0.132559,0.181602 0.227245,0.258806l2.741989,1.79805l-0.414188,0c-0.15878,0 -0.217048,0.151496 -0.271917,0.352035c-0.051956,0.196654 -0.030591,0.456432 -0.030591,0.666682l0,0.43798l-1.229452,0l-0.198596,1.714047l-2.505033,-2.822593z"/>
  </g>
 </g>
</svg>